HIERARCHY
ROOT root
{
	OFFSET 0.000000 0.000000 0.000000
	CHANNELS 6 Xposition Yposition Zposition Zrotation Yrotation Xrotation
	JOINT lhip
	{
		OFFSET 0.058581 -0.082280 -0.017664
		CHANNELS 3 Zrotation Yrotation Xrotation
		JOINT lknee
		{
			OFFSET 0.043451 -0.386469 0.008037
			CHANNELS 3 Zrotation Yrotation Xrotation
			JOINT lankle
			{
				OFFSET -0.014790 -0.426874 -0.037428
				CHANNELS 3 Zrotation Yrotation Xrotation
				JOINT ltoe
				{
					OFFSET 0.041054 -0.060286 0.122042
					CHANNELS 3 Zrotation Yrotation Xrotation
					End Site
					{
						OFFSET 0.000000 0.000000 0.000000
					}
				}
			}
		}
	}
	JOINT rhip
	{
		OFFSET -0.060310 -0.090513 -0.013543
		CHANNELS 3 Zrotation Yrotation Xrotation
		JOINT rknee
		{
			OFFSET -0.043257 -0.383688 -0.004843
			CHANNELS 3 Zrotation Yrotation Xrotation
			JOINT rankle
			{
				OFFSET 0.019056 -0.420046 -0.034562
				CHANNELS 3 Zrotation Yrotation Xrotation
				JOINT rtoe
				{
					OFFSET -0.034840 -0.062106 0.130323
					CHANNELS 3 Zrotation Yrotation Xrotation
					End Site
					{
						OFFSET 0.000000 0.000000 0.000000
					}
				}
			}
		}
	}
	JOINT lowerback
	{
		OFFSET 0.004439 0.124404 -0.038385
		CHANNELS 3 Zrotation Yrotation Xrotation
		JOINT upperback
		{
			OFFSET 0.004488 0.137956 0.026820
			CHANNELS 3 Zrotation Yrotation Xrotation
			JOINT chest
			{
				OFFSET -0.002265 0.056032 0.002855
				CHANNELS 3 Zrotation Yrotation Xrotation
				JOINT lowerneck
				{
					OFFSET -0.013390 0.211636 -0.033468
					CHANNELS 3 Zrotation Yrotation Xrotation
					JOINT upperneck
					{
						OFFSET 0.010113 0.088937 0.050410
						CHANNELS 3 Zrotation Yrotation Xrotation
						End Site
						{
							OFFSET 0.000000 0.000000 0.000000
						}
					}
				}
				JOINT lclavicle
				{
					OFFSET 0.071702 0.114000 -0.018898
					CHANNELS 3 Zrotation Yrotation Xrotation
					JOINT lshoulder
					{
						OFFSET 0.122921 0.045205 -0.019046
						CHANNELS 3 Zrotation Yrotation Xrotation
						JOINT lelbow
						{
							OFFSET 0.255332 -0.015649 -0.022946
							CHANNELS 3 Zrotation Yrotation Xrotation
							JOINT lwrist
							{
								OFFSET 0.265709 0.012698 -0.007375
								CHANNELS 3 Zrotation Yrotation Xrotation
								End Site
								{
									OFFSET 0.000000 0.000000 0.000000
								}
							}
						}
					}
				}
				JOINT rclavicle
				{
					OFFSET -0.082954 0.112472 -0.023707
					CHANNELS 3 Zrotation Yrotation Xrotation
					JOINT rshoulder
					{
						OFFSET -0.113228 0.046853 -0.008472
						CHANNELS 3 Zrotation Yrotation Xrotation
						JOINT relbow
						{
							OFFSET -0.260127 -0.014369 -0.031269
							CHANNELS 3 Zrotation Yrotation Xrotation
							JOINT rwrist
							{
								OFFSET -0.269108 0.006794 -0.006027
								CHANNELS 3 Zrotation Yrotation Xrotation
								End Site
								{
									OFFSET 0.000000 0.000000 0.000000
								}
							}
						}
					}
				}
			}
		}
	}
}
MOTION
Frames: 8
Frame Time: 0.033333
0.302753 0.914625 0.977114 -13.110154 1.698030 90.502647 5.354201 5.249984 -0.675725 -4.869263 1.172500 7.249017 4.931914 7.429506 -13.281559 0.000000 -0.000000 0.000000 -7.648053 -2.211150 -18.797405 -0.687842 -7.902459 29.477331 3.503859 -9.270660 -9.271883 0.000000 -0.000000 0.000000 -4.722183 -2.112217 13.124828 5.991639 -5.530684 -1.381877 1.274266 -4.472757 1.868653 7.831905 -16.015784 1.435746 1.779119 -25.098873 14.982293 -21.109527 6.140067 2.844558 -59.791782 -14.408039 10.712685 11.679714 -26.779650 7.348900 0.910756 -10.731307 -11.180488 26.930490 -5.012335 -2.647869 58.463269 3.852594 11.398256 -25.811318 25.775452 -15.252626 -1.347367 6.854082 -14.855150 
0.297009 0.913586 0.976492 -12.610336 1.501467 90.386343 5.607782 5.516561 -0.933550 -4.959434 0.710374 8.096080 4.511362 7.408549 -13.517404 0.000000 -0.000000 0.000000 -8.795049 -3.093709 -18.501318 -1.219298 -7.211469 29.347057 3.640383 -9.364991 -8.909271 0.000000 -0.000000 0.000000 -4.005127 -2.424935 13.611096 5.724700 -5.416152 -1.529310 1.274580 -4.256088 2.008268 7.725938 -16.831873 0.713285 1.742086 -25.354278 15.324470 -21.312589 5.637797 2.758794 -59.561606 -15.042254 10.678150 11.282740 -27.456690 7.326780 1.688925 -11.222771 -11.984168 26.687239 -4.734226 -2.841528 55.936391 4.258521 10.403838 -26.356654 26.003948 -16.425783 -2.043694 6.929850 -14.667607 
0.289405 0.912713 0.975900 -12.627984 1.392980 90.563293 6.109278 5.963824 -1.440714 -5.201617 0.551899 8.998940 4.157322 7.125150 -14.009702 0.000000 -0.000000 0.000000 -10.282790 -3.400311 -18.735087 -1.063577 -6.626365 28.782069 3.569122 -9.942254 -8.119771 0.000000 -0.000000 0.000000 -3.451959 -1.992294 13.768947 5.877304 -4.827319 -1.457881 1.679366 -4.477026 1.849350 7.565156 -18.004430 0.287587 1.725974 -25.281321 14.854472 -21.960700 4.783239 3.108624 -59.097220 -15.499063 11.064698 10.946943 -28.777060 7.468826 2.442701 -12.084050 -12.634992 25.794877 -4.161837 -2.934505 52.944328 5.185102 9.143370 -27.016489 25.732020 -18.816483 -3.096220 7.126669 -14.928528 
0.280459 0.911653 0.973891 -12.064926 1.410709 90.453035 6.900209 6.127058 -1.936350 -5.407293 0.419227 10.403799 3.884889 6.533688 -14.699800 0.000000 -0.000000 0.000000 -12.387439 -4.455177 -18.026528 -0.821412 -6.533978 26.756937 4.190436 -9.683455 -6.654909 0.000000 -0.000000 0.000000 -1.619422 -1.988708 14.253845 5.887360 -4.992928 -1.074004 1.544827 -4.440297 1.832053 7.616418 -19.220278 -0.681745 1.667826 -25.272003 14.420363 -22.031277 3.846350 3.163199 -58.890400 -15.731619 11.931196 9.973619 -31.646415 8.739413 3.971553 -12.270973 -13.955224 24.979963 -2.795788 -2.933036 48.365328 7.329896 6.936629 -28.030850 25.412145 -22.631921 -5.445043 7.179808 -14.384737 
0.273507 0.911665 0.972822 -12.214190 1.477249 90.490568 7.449722 6.454766 -2.376930 -5.379285 0.529786 11.448530 3.296718 6.279453 -15.186665 0.000000 -0.000000 0.000000 -13.400229 -4.836128 -17.602930 -0.874580 -6.645319 24.918956 4.720132 -8.950801 -6.343146 0.000000 -0.000000 0.000000 -0.541045 -1.915048 14.598076 5.906430 -4.777543 -0.893882 1.648355 -4.315793 1.803689 7.634995 -19.597732 -1.008978 1.735524 -25.029835 13.815930 -22.334458 3.177123 3.091669 -58.523370 -15.567140 12.453014 9.503843 -33.905694 9.760921 4.412958 -12.628318 -13.765099 24.351160 -1.751750 -2.906135 45.289266 8.677057 5.333348 -28.312916 25.469617 -25.149579 -7.079653 7.258569 -14.680308 
0.263223 0.911730 0.971144 -12.078349 1.115738 90.495730 7.861447 6.423555 -2.980292 -5.553268 0.456429 12.846282 2.834297 6.189637 -16.177021 0.000000 -0.000000 0.000000 -14.967864 -5.577535 -16.964423 -0.751182 -6.124046 22.190744 4.951145 -9.103031 -6.595305 0.000000 -0.000000 0.000000 0.306092 -1.833293 14.877826 6.001870 -4.756130 -0.318821 1.915330 -4.096499 1.422272 7.359498 -20.631043 -0.934387 1.795120 -24.910346 13.398625 -22.551270 1.801111 3.556364 -57.971406 -15.508396 13.359719 8.702900 -36.609729 10.519517 5.853306 -13.432530 -14.581364 23.324479 0.319875 -2.431190 40.988737 10.017078 3.485238 -28.555760 24.722009 -27.383316 -9.267261 7.547451 -13.666614 
0.253054 0.912088 0.968501 -12.214441 0.547180 90.338914 7.798993 6.702754 -3.597532 -5.232616 0.440287 14.904747 2.579912 6.000427 -17.001051 0.000000 -0.000000 0.000000 -16.478690 -5.690406 -15.995280 -0.965399 -5.092924 18.871602 5.608224 -9.449455 -6.282511 0.000000 -0.000000 0.000000 1.473232 -2.048573 15.481618 5.791369 -4.468607 0.185484 2.026132 -3.859597 1.374097 7.087594 -21.647707 -1.271942 2.115644 -24.075661 12.787405 -22.762119 0.358585 3.614948 -57.216803 -15.555173 13.880823 7.315436 -39.194752 11.589275 6.078095 -14.348935 -14.907462 21.644818 2.493851 -2.047748 37.376575 10.897093 1.696326 -28.833780 24.402070 -29.743507 -9.382450 7.403622 -12.744320 
0.241149 0.914114 0.965040 -12.217119 -0.054412 90.471496 7.856357 6.339741 -4.706837 -5.317859 0.508678 16.818337 2.423926 6.717622 -17.687376 0.000000 -0.000000 0.000000 -18.233019 -5.838626 -15.780800 -0.692662 -5.360930 16.565212 6.073343 -9.233045 -5.975836 0.000000 -0.000000 0.000000 2.944738 -2.313508 16.398969 5.362978 -4.088540 -0.054809 1.952526 -3.640462 1.051186 6.702713 -22.660746 -1.199895 2.316382 -23.599733 12.625793 -22.869909 -1.354329 4.216685 -56.393925 -15.460499 14.740166 6.471021 -41.994197 12.428191 6.982744 -15.092559 -15.414855 19.805352 5.077681 -0.814516 33.820418 11.829652 -0.125640 -27.316915 21.832540 -31.037186 -10.857767 7.985882 -12.936444 
